<svg width="505" height="49" viewBox="0 0 505 49" fill="none" xmlns="http://www.w3.org/2000/svg">
<path d="M496.08 16.2598L498.09 18.7097C498.09 18.7097 497.66 22.5698 489.65 23.6898C489.65 23.6898 496.18 21.8398 496.08 16.2598Z" fill="#1A1A1A"/>
<path d="M496.08 32.2593L498.09 29.8093C498.09 29.8093 497.66 25.9493 489.65 24.8193C489.65 24.8193 496.18 26.6793 496.08 32.2593Z" fill="#1A1A1A"/>
<path d="M504.93 24.2596L501.55 22.6396L493.521 24.2596L501.55 25.8796L504.93 24.2596Z" fill="#1A1A1A"/>
<path d="M240.95 47.3294L237.19 46.9594C237.19 46.9594 234.28 43.3294 240.11 35.6094C240.11 35.6094 236.16 42.6994 240.95 47.3294Z" fill="#1A1A1A"/>
<path d="M227.43 33.8096L227.8 37.5696C227.8 37.5696 231.43 40.4796 239.15 34.6496C239.15 34.6496 232.06 38.5996 227.43 33.8096Z" fill="#1A1A1A"/>
<path d="M226.71 48.0494L230.93 46.5594L236.36 38.3994L228.2 43.8294L226.71 48.0494Z" fill="#1A1A1A"/>
<path d="M234.69 40.7997L233.99 40.0898C244.52 29.5598 258.52 23.7598 273.41 23.7598H498.45V24.7598H273.41C258.78 24.7598 245.03 30.4497 234.69 40.7997Z" fill="#1A1A1A"/>
<path d="M9.23949 32.0494L7.22949 29.5994C7.22949 29.5994 7.65949 25.7394 15.6695 24.6094C15.6695 24.6094 9.13949 26.4694 9.23949 32.0494Z" fill="#1A1A1A"/>
<path d="M9.23949 16.0498L7.22949 18.4898C7.22949 18.4898 7.65949 22.3598 15.6695 23.4798C15.6695 23.4798 9.13949 21.6198 9.23949 16.0498Z" fill="#1A1A1A"/>
<path d="M0.389648 24.0497L3.76965 25.6597L11.8097 24.0497L3.76965 22.4297L0.389648 24.0497Z" fill="#1A1A1A"/>
<path d="M264.37 0.979492L268.13 1.34949C268.13 1.34949 271.04 4.96949 265.22 12.6995C265.22 12.6995 269.17 5.60949 264.37 0.979492Z" fill="#1A1A1A"/>
<path d="M277.89 14.4992L277.52 10.7392C277.52 10.7392 273.9 7.82922 266.17 13.6492C266.17 13.6492 273.26 9.69923 277.89 14.4992Z" fill="#1A1A1A"/>
<path d="M278.61 0.259766L274.39 1.74976L268.96 9.89975L277.12 4.47977L278.61 0.259766Z" fill="#1A1A1A"/>
<path d="M231.92 24.5497H6.87012V23.5497H231.92C246.54 23.5497 260.29 17.8498 270.63 7.50977L271.34 8.21976C260.81 18.7498 246.81 24.5497 231.92 24.5497Z" fill="#1A1A1A"/>
</svg>
